<?xml version="1.0" encoding="UTF-8" standalone="no"?>
<!DOCTYPE svg PUBLIC "-//W3C//DTD SVG 1.0//EN" "http://www.w3.org/TR/2001/PR-SVG-20010719/DTD/svg10.dtd">
<svg width="30cm" height="26cm" viewBox="38 38 583 506" xmlns="http://www.w3.org/2000/svg" xmlns:xlink="http://www.w3.org/1999/xlink">
  <g>
    <rect style="fill: #ffffff" x="40" y="40" width="295.35" height="70"/>
    <rect style="fill: none; fill-opacity:0; stroke-width: 2; stroke: #000000" x="40" y="40" width="295.35" height="70"/>
    <text font-size="12.8" style="fill: #000000;text-anchor:middle;font-family:sans-serif;font-style:normal;font-weight:normal" x="187.675" y="70.9">
      <tspan x="187.675" y="70.9">Google Scholar searches </tspan>
      <tspan x="187.675" y="86.9">and unification of results</tspan>
    </text>
  </g>
  <g>
    <rect style="fill: #ffffff" x="40" y="144" width="295" height="67"/>
    <rect style="fill: none; fill-opacity:0; stroke-width: 2; stroke: #000000" x="40" y="144" width="295" height="67"/>
    <text font-size="12.8" style="fill: #000000;text-anchor:middle;font-family:sans-serif;font-style:normal;font-weight:normal" x="187.5" y="173.4">
      <tspan x="187.5" y="173.4">First filter phase:</tspan>
      <tspan x="187.5" y="189.4">Title and contextual search result</tspan>
    </text>
  </g>
  <g>
    <rect style="fill: #ffffff" x="40" y="251.5" width="295" height="67"/>
    <rect style="fill: none; fill-opacity:0; stroke-width: 2; stroke: #000000" x="40" y="251.5" width="295" height="67"/>
    <text font-size="12.8" style="fill: #000000;text-anchor:middle;font-family:sans-serif;font-style:normal;font-weight:normal" x="187.5" y="288.9">
      <tspan x="187.5" y="288.9">Backward snowballing</tspan>
    </text>
  </g>
  <g>
    <path style="fill: #ffffff" d="M 392 39.6144 L 620,39.6144 L 620,98.9465 C 574.4,89.0578 551.6,89.0578 506,98.9465 C 460.4,108.835 437.6,108.835 392,98.9465 L 392,39.6144z"/>
    <path style="fill: none; fill-opacity:0; stroke-width: 2; stroke: #000000" d="M 392 39.6144 L 620,39.6144 L 620,98.9465 C 574.4,89.0578 551.6,89.0578 506,98.9465 C 460.4,108.835 437.6,108.835 392,98.9465 L 392,39.6144"/>
    <text font-size="12.8" style="fill: #000000;text-anchor:middle;font-family:sans-serif;font-style:normal;font-weight:normal" x="506" y="68.3361">
      <tspan x="506" y="68.3361">1,552 articles</tspan>
    </text>
  </g>
  <g>
    <rect style="fill: #ffffff" x="40" y="361" width="295" height="70"/>
    <rect style="fill: none; fill-opacity:0; stroke-width: 2; stroke: #000000" x="40" y="361" width="295" height="70"/>
    <text font-size="12.8" style="fill: #000000;text-anchor:middle;font-family:sans-serif;font-style:normal;font-weight:normal" x="187.5" y="383.9">
      <tspan x="187.5" y="383.9">Second filter phase:</tspan>
      <tspan x="187.5" y="399.9">Download and examine full paper, </tspan>
      <tspan x="187.5" y="415.9">search for "log"</tspan>
    </text>
  </g>
  <g>
    <rect style="fill: #ffffff" x="40" y="472.626" width="295" height="70"/>
    <rect style="fill: none; fill-opacity:0; stroke-width: 2; stroke: #000000" x="40" y="472.626" width="295" height="70"/>
    <text font-size="12.8" style="fill: #000000;text-anchor:middle;font-family:sans-serif;font-style:normal;font-weight:normal" x="187.5" y="503.526">
      <tspan x="187.5" y="503.526">Third filter phase </tspan>
      <tspan x="187.5" y="519.526">and Categorization</tspan>
    </text>
  </g>
  <g>
    <line style="fill: none; fill-opacity:0; stroke-width: 2; stroke: #000000" x1="335.35" y1="75" x2="381.265" y2="74.7914"/>
    <polygon style="fill: #000000" points="388.765,74.7573 378.788,79.8027 381.265,74.7914 378.742,69.8028 "/>
    <polygon style="fill: none; fill-opacity:0; stroke-width: 2; stroke: #000000" points="388.765,74.7573 378.788,79.8027 381.265,74.7914 378.742,69.8028 "/>
  </g>
  <g>
    <path style="fill: #ffffff" d="M 392 142.343 L 620,142.343 L 620,201.675 C 574.4,191.787 551.6,191.787 506,201.675 C 460.4,211.564 437.6,211.564 392,201.675 L 392,142.343z"/>
    <path style="fill: none; fill-opacity:0; stroke-width: 2; stroke: #000000" d="M 392 142.343 L 620,142.343 L 620,201.675 C 574.4,191.787 551.6,191.787 506,201.675 C 460.4,211.564 437.6,211.564 392,201.675 L 392,142.343"/>
    <text font-size="12.8" style="fill: #000000;text-anchor:middle;font-family:sans-serif;font-style:normal;font-weight:normal" x="506" y="171.065">
      <tspan x="506" y="171.065">256 articles</tspan>
    </text>
  </g>
  <g>
    <polyline style="fill: none; fill-opacity:0; stroke-width: 2; stroke: #000000" points="506,102.158 506,122.575 187.5,122.575 187.5,133.256 "/>
    <polygon style="fill: #000000" points="187.5,140.756 182.5,130.756 187.5,133.256 192.5,130.756 "/>
    <polygon style="fill: none; fill-opacity:0; stroke-width: 2; stroke: #000000" points="187.5,140.756 182.5,130.756 187.5,133.256 192.5,130.756 "/>
  </g>
  <g>
    <path style="fill: #ffffff" d="M 392 250.228 L 620,250.228 L 620,309.56 C 574.4,299.671 551.6,299.671 506,309.56 C 460.4,319.449 437.6,319.449 392,309.56 L 392,250.228z"/>
    <path style="fill: none; fill-opacity:0; stroke-width: 2; stroke: #000000" d="M 392 250.228 L 620,250.228 L 620,309.56 C 574.4,299.671 551.6,299.671 506,309.56 C 460.4,319.449 437.6,319.449 392,309.56 L 392,250.228"/>
    <text font-size="12.8" style="fill: #000000;text-anchor:middle;font-family:sans-serif;font-style:normal;font-weight:normal" x="506" y="278.95">
      <tspan x="506" y="278.95">261 articles</tspan>
    </text>
  </g>
  <g>
    <line style="fill: none; fill-opacity:0; stroke-width: 2; stroke: #000000" x1="335" y1="177.5" x2="381.269" y2="177.352"/>
    <polygon style="fill: #000000" points="388.769,177.328 378.785,182.36 381.269,177.352 378.753,172.36 "/>
    <polygon style="fill: none; fill-opacity:0; stroke-width: 2; stroke: #000000" points="388.769,177.328 378.785,182.36 381.269,177.352 378.753,172.36 "/>
  </g>
  <g>
    <line style="fill: none; fill-opacity:0; stroke-width: 2; stroke: #000000" x1="335" y1="285" x2="381.269" y2="284.956"/>
    <polygon style="fill: #000000" points="388.769,284.949 378.774,289.959 381.269,284.956 378.764,279.959 "/>
    <polygon style="fill: none; fill-opacity:0; stroke-width: 2; stroke: #000000" points="388.769,284.949 378.774,289.959 381.269,284.956 378.764,279.959 "/>
  </g>
  <g>
    <polyline style="fill: none; fill-opacity:0; stroke-width: 2; stroke: #000000" points="506,201.676 506,230.246 187.5,230.246 187.5,241.764 "/>
    <polygon style="fill: #000000" points="187.5,249.264 182.5,239.264 187.5,241.764 192.5,239.264 "/>
    <polygon style="fill: none; fill-opacity:0; stroke-width: 2; stroke: #000000" points="187.5,249.264 182.5,239.264 187.5,241.764 192.5,239.264 "/>
  </g>
  <g>
    <polyline style="fill: none; fill-opacity:0; stroke-width: 2; stroke: #000000" points="506,312.772 506,336.382 187.5,336.382 187.5,350.256 "/>
    <polygon style="fill: #000000" points="187.5,357.756 182.5,347.756 187.5,350.256 192.5,347.756 "/>
    <polygon style="fill: none; fill-opacity:0; stroke-width: 2; stroke: #000000" points="187.5,357.756 182.5,347.756 187.5,350.256 192.5,347.756 "/>
  </g>
  <g>
    <path style="fill: #ffffff" d="M 392 360.072 L 620,360.072 L 620,419.404 C 574.4,409.515 551.6,409.515 506,419.404 C 460.4,429.293 437.6,429.293 392,419.404 L 392,360.072z"/>
    <path style="fill: none; fill-opacity:0; stroke-width: 2; stroke: #000000" d="M 392 360.072 L 620,360.072 L 620,419.404 C 574.4,409.515 551.6,409.515 506,419.404 C 460.4,429.293 437.6,429.293 392,419.404 L 392,360.072"/>
    <text font-size="12.8" style="fill: #000000;text-anchor:middle;font-family:sans-serif;font-style:normal;font-weight:normal" x="506" y="388.794">
      <tspan x="506" y="388.794">87 articles</tspan>
    </text>
  </g>
  <g>
    <path style="fill: #ffffff" d="M 392 472 L 620,472 L 620,531.332 C 574.4,521.443 551.6,521.443 506,531.332 C 460.4,541.221 437.6,541.221 392,531.332 L 392,472z"/>
    <path style="fill: none; fill-opacity:0; stroke-width: 2; stroke: #000000" d="M 392 472 L 620,472 L 620,531.332 C 574.4,521.443 551.6,521.443 506,531.332 C 460.4,541.221 437.6,541.221 392,531.332 L 392,472"/>
    <text font-size="12.8" style="fill: #000000;text-anchor:middle;font-family:sans-serif;font-style:normal;font-weight:normal" x="506" y="500.722">
      <tspan x="506" y="500.722">61 articles</tspan>
    </text>
  </g>
  <g>
    <line style="fill: none; fill-opacity:0; stroke-width: 2; stroke: #000000" x1="335" y1="396" x2="381.269" y2="395.643"/>
    <polygon style="fill: #000000" points="388.769,395.586 378.808,400.663 381.269,395.643 378.731,390.663 "/>
    <polygon style="fill: none; fill-opacity:0; stroke-width: 2; stroke: #000000" points="388.769,395.586 378.808,400.663 381.269,395.643 378.731,390.663 "/>
  </g>
  <g>
    <polyline style="fill: none; fill-opacity:0; stroke-width: 2; stroke: #000000" points="506,421.602 506,451.808 187.5,451.808 187.5,462.89 "/>
    <polygon style="fill: #000000" points="187.5,470.39 182.5,460.39 187.5,462.89 192.5,460.39 "/>
    <polygon style="fill: none; fill-opacity:0; stroke-width: 2; stroke: #000000" points="187.5,470.39 182.5,460.39 187.5,462.89 192.5,460.39 "/>
  </g>
  <g>
    <line style="fill: none; fill-opacity:0; stroke-width: 2; stroke: #000000" x1="335" y1="507.626" x2="381.269" y2="507.351"/>
    <polygon style="fill: #000000" points="388.769,507.307 378.799,512.366 381.269,507.351 378.739,502.366 "/>
    <polygon style="fill: none; fill-opacity:0; stroke-width: 2; stroke: #000000" points="388.769,507.307 378.799,512.366 381.269,507.351 378.739,502.366 "/>
  </g>
  <text font-size="12.8" style="fill: #000000;text-anchor:start;font-family:sans-serif;font-style:normal;font-weight:normal" x="506" y="176.954">
    <tspan x="506" y="176.954"></tspan>
  </text>
</svg>
